<?xml version="1.0" encoding="iso-8859-1"?>
<!-- Generator: Adobe Illustrator 19.0.0, SVG Export Plug-In . SVG Version: 6.00 Build 0)  -->
<svg version="1.1" id="Layer_1" xmlns="http://www.w3.org/2000/svg" xmlns:xlink="http://www.w3.org/1999/xlink" x="0px" y="0px"
	 viewBox="0 0 512.002 512.002" style="enable-background:new 0 0 512.002 512.002;" xml:space="preserve">
<g>
	<g>
		<path d="M454.814,334.98c0-28.762-21.343-52.634-49.022-56.611V149.785C405.791,67.991,338.947,0.797,256.704,0
			c-82.982,0-150.493,67.193-150.493,149.785v128.584c-27.68,3.976-49.022,27.848-49.022,56.611
			c0,26.434,18.03,48.727,42.435,55.253c-23.247,31.915-36.988,71.178-36.988,113.597c0,4.512,3.658,8.17,8.17,8.17
			s8.17-3.658,8.17-8.17c0-65.949,36.254-123.582,89.874-154.038V503.83c0,4.512,3.658,8.17,8.17,8.17s8.17-3.658,8.17-8.17V341.602
			c9.447-4.14,19.32-7.478,29.536-9.926l16.473,37.063l-15.94,96.198c-0.399,2.404,0.296,4.861,1.897,6.699l32.682,37.56
			c1.552,1.783,3.8,2.807,6.164,2.807c2.364,0,4.611-1.024,6.164-2.807l32.682-37.56c1.599-1.839,2.294-4.294,1.897-6.699
			l-15.941-96.198l16.473-37.062c10.216,2.449,20.089,5.788,29.535,9.926V503.83c0,4.512,3.657,8.17,8.17,8.17s8.17-3.658,8.17-8.17
			V349.792c53.62,30.456,89.874,88.09,89.874,154.038c0,4.512,3.657,8.17,8.17,8.17s8.17-3.658,8.17-8.17
			c0-42.418-13.74-81.682-36.988-113.597C436.783,383.708,454.814,361.414,454.814,334.98z M256.001,491.382L232.01,463.81
			l14.579-87.983h18.826l14.579,87.983L256.001,491.382z M267.032,359.486H244.97l-13.75-30.939
			c8.101-1.14,16.371-1.743,24.781-1.743c8.41,0,16.681,0.604,24.782,1.743L267.032,359.486z M339.226,329.312
			c-0.514-0.314-1.063-0.573-1.644-0.768c-13.606-6.358-28.065-11.185-43.16-14.24c-0.218-0.052-0.436-0.091-0.654-0.125
			c-12.219-2.429-24.844-3.714-37.767-3.714c-12.918,0-25.541,1.284-37.757,3.712c-0.222,0.034-0.445,0.075-0.666,0.128
			c-15.096,3.056-29.554,7.882-43.16,14.24c-0.58,0.195-1.129,0.454-1.642,0.768c-23.494,11.249-44.37,27.108-61.467,46.394
			c-21.096-1.577-37.781-19.233-37.781-40.724c0-22.526,18.326-40.852,40.852-40.852c4.512,0,8.17-3.658,8.17-8.17V149.786
			c0.001-73.583,60.182-133.445,134.074-133.445c73.24,0.711,132.827,60.574,132.827,133.445v136.173c0,4.512,3.657,8.17,8.17,8.17
			c22.526,0,40.852,18.326,40.852,40.852c0,21.492-16.686,39.148-37.781,40.724C383.595,356.419,362.718,340.56,339.226,329.312z"/>
	</g>
</g>
<g>
	<g>
		<circle cx="367.668" cy="471.148" r="8.17"/>
	</g>
</g>
<g>
	<g>
		<circle cx="367.668" cy="438.467" r="8.17"/>
	</g>
</g>
<g>
	<g>
		<path d="M227.132,141.609h-21.788c-4.512,0-8.17,3.658-8.17,8.17s3.658,8.17,8.17,8.17h14.082
			c1.121,3.173,4.148,5.447,7.705,5.447c4.512,0,8.17-3.658,8.17-8.17v-5.447C235.303,145.267,231.645,141.609,227.132,141.609z"/>
	</g>
</g>
<g>
	<g>
		<path d="M306.657,141.609H284.87c-4.512,0-8.17,3.658-8.17,8.17v5.447c0,4.512,3.657,8.17,8.17,8.17
			c3.558,0,6.584-2.274,7.705-5.447h14.082c4.513,0,8.17-3.658,8.17-8.17S311.171,141.609,306.657,141.609z"/>
	</g>
</g>
<g>
	<g>
		<path d="M276.711,191.103c-4.249-1.509-8.923,0.71-10.434,4.962c-1.543,4.338-5.672,7.252-10.277,7.252
			c-4.605,0-8.735-2.914-10.276-7.252c-1.511-4.252-6.184-6.471-10.435-4.962c-4.252,1.512-6.473,6.183-4.962,10.435
			c3.854,10.838,14.172,18.12,25.675,18.12c11.504,0,21.82-7.281,25.672-18.12C283.186,197.286,280.964,192.615,276.711,191.103z"/>
	</g>
</g>
<g>
	<g>
		<path d="M367.747,114.648c-0.66-2.098-2.088-3.737-3.877-4.715c-0.244-0.133-0.454-0.232-0.667-0.326
			c-0.032-0.014-0.062-0.031-0.095-0.044c-0.215-0.09-0.434-0.168-0.655-0.24c-0.032-0.01-0.061-0.023-0.093-0.033
			c-0.802-0.248-1.645-0.375-2.505-0.364h-31.095c-4.513,0-8.17,3.658-8.17,8.17c0,4.512,3.657,8.17,8.17,8.17h24.989
			c1.994,7.978,3.019,16.194,3.019,24.511v27.235c0,55.564-45.204,100.768-100.768,100.768s-100.768-45.204-100.768-100.768V149.78
			c0-20.331,6.037-39.858,17.245-56.406c7.458,18.669,25.75,31.895,47.078,31.895h76.525c4.513,0,8.17-3.658,8.17-8.17
			c0-4.512-3.657-8.17-8.17-8.17h-76.525c-18.923,0-34.317-15.357-34.317-34.232c0-3.341-2.035-6.347-5.138-7.586
			c-3.103-1.24-6.65-0.466-8.951,1.955c-20.801,21.863-32.257,50.528-32.257,80.716v27.235c0,64.574,52.534,117.109,117.109,117.109
			c64.573,0,117.109-52.534,117.109-117.109v-27.235C373.111,137.797,371.307,125.976,367.747,114.648z"/>
	</g>
</g>
<g>
</g>
<g>
</g>
<g>
</g>
<g>
</g>
<g>
</g>
<g>
</g>
<g>
</g>
<g>
</g>
<g>
</g>
<g>
</g>
<g>
</g>
<g>
</g>
<g>
</g>
<g>
</g>
<g>
</g>
</svg>
