<?xml version="1.0" encoding="iso-8859-1"?>
<!-- Generator: Adobe Illustrator 19.0.0, SVG Export Plug-In . SVG Version: 6.00 Build 0)  -->
<svg version="1.1" id="Layer_1" xmlns="http://www.w3.org/2000/svg" xmlns:xlink="http://www.w3.org/1999/xlink" x="0px" y="0px"
	 viewBox="0 0 358.248 358.248" style="enable-background:new 0 0 358.248 358.248;" xml:space="preserve">
<g id="XMLID_337_">
	<g id="XMLID_338_">
		<path id="XMLID_18_" style="fill:#49B86E;" d="M268.176,278.888c-29.115,29.115-86.78,18.654-86.78,18.654
			s-10.461-57.665,18.654-86.78c21.154-21.154,57.381-21.416,75.61-19.977c6.677,0.527,11.966,5.816,12.493,12.493
			C289.592,221.507,289.331,257.734,268.176,278.888z"/>
		<path id="XMLID_17_" style="fill:#49B86E;" d="M90.071,318.062c29.115,29.115,86.78,18.654,86.78,18.654
			s10.461-57.665-18.654-86.78c-21.154-21.154-57.381-21.415-75.61-19.977c-6.677,0.527-11.966,5.816-12.493,12.493
			C68.656,260.681,68.917,296.908,90.071,318.062z"/>
	</g>
	<g id="XMLID_340_">
		<path id="XMLID_341_" style="fill:#2B7B57;" d="M179.124,358.248L179.124,358.248c-8.796,0-15.926-7.13-15.926-15.926V135.318
			c0-8.796,7.13-15.926,15.926-15.926l0,0c8.796,0,15.926,7.13,15.926,15.926v207.004
			C195.05,351.118,187.92,358.248,179.124,358.248z"/>
	</g>
	<path id="XMLID_348_" style="fill:#9FCBA5;" d="M154.79,142.655c-44.925,77.812-114.183-42.148-24.334-42.148
		c-89.849,0-20.59-119.96,24.334-42.148c-44.925-77.812,93.593-77.812,48.668,0c44.925-77.812,114.183,42.148,24.334,42.148
		c89.849,0,20.59,119.96-24.334,42.148C248.383,220.466,109.865,220.466,154.79,142.655z"/>
	<circle id="XMLID_350_" style="fill:#2B7B57;" cx="179.124" cy="100.507" r="23.649"/>
</g>
<g>
</g>
<g>
</g>
<g>
</g>
<g>
</g>
<g>
</g>
<g>
</g>
<g>
</g>
<g>
</g>
<g>
</g>
<g>
</g>
<g>
</g>
<g>
</g>
<g>
</g>
<g>
</g>
<g>
</g>
</svg>
