<svg xmlns="http://www.w3.org/2000/svg" viewBox="0 0 1275.09 445.12"><defs><style>.cls-1{fill:#00d084;}</style></defs><title>Asset 1investbg</title><g id="Layer_2" data-name="Layer 2"><g id="Layer_1-2" data-name="Layer 1"><path class="cls-1" d="M42.26,6.6h1225c4.19,0,10.11-3.82,7-6.61q.07,118.37.13,236.74c0,4.21-.18,8.89-3.15,11.87-2.7,2.71-6.86,3.15-10.67,3.44-62.22,4.68-122.93,7.33-184.88-2.71C1036.77,243,998.56,233,959.55,227.55c-33.48-4.64-68.1-5.78-101.2,2.08-32.18,7.63-61.83,23.82-94.71,28.91-28.42,4.4-57.39.3-85.89-3.63s-57.56-7.68-85.87-2.6c-27.67,5-48.48,18.51-65.83,40.05-16.57,20.57-28.38,47.53-50.94,62.69-20.23,13.59-46.69,15.11-70.42,9.58-34.2-8-62.88-29.1-94.87-42.54-29-12.17-64.31-18.25-92.2-.15-24.92,16.18-35.69,45.44-52.48,68.64C128.25,441.57,56,461.81,0,429.58l.26,0,6-423"/></g></g></svg>