<?xml version='1.0' standalone='no'?>
<svg width="600" height="600" viewBox="0 0 600 600" xmlns="http://www.w3.org/2000/svg"><g transform="translate(300,300)"><path stroke="none" stroke-width="0" fill="#FE840E" d="M135.9358019497037,-202.26624681498893C167.6376858262088,-164.06681329415386,178.92449454261975,-112.93510608457167,183.299823545765,-67.18014218061735C187.67515254891032,-21.42517827666303,185.1390018387899,18.95304232166343,174.49942283609843,58.24338443259729C163.85984383340693,97.53372654353115,145.11683653814433,135.7361901670724,114.68302801669942,164.18097968040743C84.24921949525451,192.62576919374246,42.12460974762727,211.3128845968712,-8.228993532094597,222.6391225181205C-58.582596811816465,233.96536043936976,-117.16519362363296,237.93072087873952,-161.23081221197506,213.91517495144544C-205.29643080031715,189.89962902415132,-234.84507116518492,137.9031767301934,-247.55876889564595,83.93891259228167C-260.272466626107,29.97464845436994,-256.1512217221614,-25.95742752749554,-239.9074384089963,-78.56868600061561C-223.66365509583127,-131.17994447373567,-195.29733337344683,-180.47038543811036,-153.29233723707756,-215.32213485321685C-111.28734110070828,-250.17388426832335,-55.64367055035414,-270.5869421341617,-1.763355756877426,-268.15989115103685C52.11695903659929,-265.732840167912,104.23391807319858,-240.46568033582403,135.9358019497037,-202.26624681498893"/></g></svg>