<?xml version="1.0" encoding="utf-8"?>
<!-- Generator: Adobe Illustrator 16.0.0, SVG Export Plug-In . SVG Version: 6.00 Build 0)  -->
<!DOCTYPE svg PUBLIC "-//W3C//DTD SVG 1.1//EN" "http://www.w3.org/Graphics/SVG/1.1/DTD/svg11.dtd">
<svg version="1.1" id="Layer_1" xmlns="http://www.w3.org/2000/svg" xmlns:xlink="http://www.w3.org/1999/xlink" x="0px" y="0px"
	 width="512px" height="512px" viewBox="0 0 512 512" enable-background="new 0 0 512 512" xml:space="preserve">
<path d="M499.346,13.149c-4.841-4.841-12.683-4.841-17.524,0l-59.901,59.897c-6.28-3.144-13.457-4.954-21.489-4.954
	c-25.003,0-55.355,15.427-81.182,41.244c-6.478,6.473-12.104,13.376-17.261,20.401c-1.813-5.34-3.893-10.404-6.273-15.076
	c-1.681-3.299-3.512-6.292-5.411-9.131l46.13-46.136c4.841-4.841,4.841-12.683,0-17.523c-4.841-4.841-12.683-4.841-17.524,0
	l-45.991,45.997c-6.87-4.409-14.332-6.835-22.217-6.835c-24.006,0.011-43.766,21.853-53.245,54.979
	c-0.531-0.021-1.044-0.132-1.577-0.132c-17.96,0-33.935,11.941-44.988,33.627c-3.27,6.413-5.814,13.71-8.003,21.334
	c-0.62-0.029-1.222-0.147-1.848-0.147c-33.813,0-59.309,43.213-59.309,100.513c0,34.052,9.055,63.038,23.469,81.026l-89.942,89.937
	c-9.682,9.681-9.682,25.366,0,35.047c4.841,4.842,11.182,7.262,17.524,7.262s12.683-2.42,17.524-7.262l89.848-89.843
	c4.131,3.286,8.878,6.32,14.23,9.05c18.145,9.229,41.897,14.328,66.892,14.328c57.299,0,100.504-25.495,100.504-59.3
	c0-0.541-0.111-1.062-0.133-1.6c33.136-9.484,54.97-29.244,54.963-53.231c0-0.625-0.125-1.229-0.153-1.849
	c7.651-2.192,14.971-4.744,21.405-8.026c21.646-11.037,33.571-27.012,33.571-44.956c0.006-7.753-2.443-15.244-6.878-22.171
	l46.048-46.053c4.841-4.841,4.841-12.683,0-17.524c-4.84-4.841-12.683-4.841-17.523,0l-46.187,46.193
	c-6.872-4.625-14.872-8.557-23.853-11.638c6.886-5.09,13.643-10.91,20.114-17.386c17.677-17.653,30.869-38.033,37.162-57.413
	c5.729-17.661,5.384-33.306-0.723-45.381l59.749-59.746C504.187,25.833,504.187,17.99,499.346,13.149z M250.712,114.081
	c4.623,0,10.73,6.115,15.556,15.587c6.825,13.393,10.738,32.305,10.73,51.894c0,7.491-0.636,14.192-1.551,20.458l-19.621,19.601
	l-1.176,1.176c-1.679-19.197-6.485-39.017-13.741-53.288c-3.813-7.491-8.248-13.732-13.118-18.807
	C233.268,126.898,244.209,114.081,250.712,114.081z M180.342,184.516c4.825-9.472,10.932-15.587,15.604-15.587
	c4.606,0,10.698,6.116,15.515,15.571c6.81,13.394,10.714,32.305,10.706,51.894c0.003,7.036-0.662,13.871-1.625,20.509
	l-19.536,19.536l-1.03,1.03c-2.61-30.002-12.722-56.901-26.921-71.733C174.856,197.863,177.252,190.571,180.342,184.516z
	 M146.455,330.985l-17.64,17.638l0,0c-7.088-10.95-14.034-30.729-14.034-57.415c0-19.589,3.913-38.501,10.738-51.878
	c4.825-9.472,10.924-15.587,15.539-15.587c8.924,0,26.302,23.817,26.302,67.465c0,7.462-0.646,14.121-1.532,20.404L146.455,330.985z
	 M221.28,397.707c-19.589,0-38.5-3.905-51.886-10.73c-2.041-1.041-3.842-2.16-5.543-3.293l36.92-36.918
	c6.637-0.962,13.473-1.63,20.508-1.63c19.589,0,38.5,3.905,51.886,10.73c9.463,4.825,15.571,10.94,15.571,15.572
	C288.737,380.36,264.928,397.707,221.28,397.707z M306.936,339.529c-5.068-4.859-11.291-9.288-18.763-13.096
	c-14.885-7.585-33.996-11.881-53.825-13.242l21.341-21.338c6.286-0.887,12.947-1.532,20.414-1.532
	c19.589,0,38.501,3.905,51.886,10.73c9.464,4.825,15.579,10.94,15.579,15.571C343.567,323.122,330.756,334.055,306.936,339.529z
	 M394.139,254.046c1.936,1.952,4.252,4.873,4.252,7.729c0,4.615-6.1,10.714-15.548,15.539c-6.051,3.086-13.337,5.48-21.204,7.281
	c-5.049-4.813-11.229-9.203-18.644-12.977c-14.824-7.557-33.473-12.161-53.414-13.658l21.36-20.99
	c6.134-0.878,12.693-1.482,20-1.482C361.785,235.489,384.909,244.816,394.139,254.046z M408.887,125.602
	c-4.639,14.281-15.24,30.417-29.093,44.246c-21.808,21.816-44.753,31.595-57.824,31.595c-2.76,0-6.471-0.436-8.479-2.437
	c-3.268-3.276-3.26-11.909,0.024-22.026c4.647-14.297,15.249-30.433,29.101-44.278c21.809-21.8,44.746-31.562,57.816-31.562
	c2.751,0,6.454,0.435,8.472,2.437C412.171,106.852,412.171,115.485,408.887,125.602z"/>
</svg>
